HIERARCHY
ROOT Hips
{
	OFFSET 0.000000 89.005402 0.000000
	CHANNELS 6 Xposition Yposition Zposition Xrotation Yrotation Zrotation
	JOINT Spine
	{
		OFFSET 0.116900 10.681000 0.373400
		CHANNELS 3 Xrotation Yrotation Zrotation
		JOINT Spine1
		{
			OFFSET 0.000000 13.840401 0.053500
			CHANNELS 3 Xrotation Yrotation Zrotation
			JOINT Spine2
			{
				OFFSET 0.000000 14.712700 -0.366200
				CHANNELS 3 Xrotation Yrotation Zrotation
				JOINT Neck
				{
					OFFSET 0.000000 35.415497 -3.314200
					CHANNELS 3 Xrotation Yrotation Zrotation
					JOINT Head
					{
						OFFSET 0.000000 16.899200 1.218300
						CHANNELS 3 Xrotation Yrotation Zrotation
						JOINT HeadTop_End
						{
							OFFSET 0.000000 22.206207 2.192500
							CHANNELS 3 Xrotation Yrotation Zrotation
							End Site
							{
								OFFSET 0.000000 22.314178 0.000000
							}
						}
					}
				}
				JOINT LeftShoulder
				{
					OFFSET 12.896400 26.716293 -4.548400
					CHANNELS 3 Xrotation Yrotation Zrotation
					JOINT LeftArm
					{
						OFFSET 19.027000 -4.857010 -1.718400
						CHANNELS 3 Xrotation Yrotation Zrotation
						JOINT LeftForeArm
						{
							OFFSET 24.179897 0.000000 0.000000
							CHANNELS 3 Xrotation Yrotation Zrotation
							JOINT LeftHand
							{
								OFFSET 27.156403 0.000000 0.000000
								CHANNELS 3 Xrotation Yrotation Zrotation
								JOINT LeftHandIndex1
								{
									OFFSET 16.441200 0.000000 0.000000
									CHANNELS 3 Xrotation Yrotation Zrotation
									JOINT LeftHandIndex2
									{
										OFFSET 4.821899 0.000000 0.000000
										CHANNELS 3 Xrotation Yrotation Zrotation
										JOINT LeftHandIndex3
										{
											OFFSET 6.386497 0.000000 0.000000
											CHANNELS 3 Xrotation Yrotation Zrotation
											JOINT LeftHandIndex4
											{
												OFFSET 5.188988 0.000000 0.000000
												CHANNELS 3 Xrotation Yrotation Zrotation
												End Site
												{
													OFFSET -0.178703 5.185913 0.000177
												}
											}
										}
									}
								}
								JOINT LeftHandThumb1
								{
									OFFSET 6.534897 -5.032593 5.900300
									CHANNELS 3 Xrotation Yrotation Zrotation
									JOINT LeftHandThumb2
									{
										OFFSET 3.818176 -2.204422 2.204423
										CHANNELS 3 Xrotation Yrotation Zrotation
										JOINT LeftHandThumb3
										{
											OFFSET 3.252098 -1.877594 1.877601
											CHANNELS 3 Xrotation Yrotation Zrotation
											JOINT LeftHandThumb4
											{
												OFFSET 5.251778 -3.032120 3.032117
												CHANNELS 3 Xrotation Yrotation Zrotation
												End Site
												{
													OFFSET 0.000023 6.780014 0.000000
												}
											}
										}
									}
								}
							}
						}
					}
				}
				JOINT RightShoulder
				{
					OFFSET -12.896300 26.716293 -4.548400
					CHANNELS 3 Xrotation Yrotation Zrotation
					JOINT RightArm
					{
						OFFSET -19.027000 -4.857010 -1.718400
						CHANNELS 3 Xrotation Yrotation Zrotation
						JOINT RightForeArm
						{
							OFFSET -24.179897 0.000000 0.000000
							CHANNELS 3 Xrotation Yrotation Zrotation
							JOINT RightHand
							{
								OFFSET -27.156403 0.000000 0.000000
								CHANNELS 3 Xrotation Yrotation Zrotation
								JOINT RightHandThumb1
								{
									OFFSET -6.591202 -4.852203 5.988100
									CHANNELS 3 Xrotation Yrotation Zrotation
									JOINT RightHandThumb2
									{
										OFFSET -3.818176 -2.204422 2.204423
										CHANNELS 3 Xrotation Yrotation Zrotation
										JOINT RightHandThumb3
										{
											OFFSET -3.252098 -1.877594 1.877601
											CHANNELS 3 Xrotation Yrotation Zrotation
											JOINT RightHandThumb4
											{
												OFFSET -5.251778 -3.032120 3.032117
												CHANNELS 3 Xrotation Yrotation Zrotation
												End Site
												{
													OFFSET -0.000023 6.780014 0.000000
												}
											}
										}
									}
								}
								JOINT RightHandIndex1
								{
									OFFSET -16.029404 0.000000 0.000000
									CHANNELS 3 Xrotation Yrotation Zrotation
									JOINT RightHandIndex2
									{
										OFFSET -5.213303 0.000000 0.000000
										CHANNELS 3 Xrotation Yrotation Zrotation
										JOINT RightHandIndex3
										{
											OFFSET -6.386528 0.000000 0.000000
											CHANNELS 3 Xrotation Yrotation Zrotation
											JOINT RightHandIndex4
											{
												OFFSET -5.189026 0.000000 0.000000
												CHANNELS 3 Xrotation Yrotation Zrotation
												End Site
												{
													OFFSET 0.236702 5.183624 0.001972
												}
											}
										}
									}
								}
							}
						}
					}
				}
			}
		}
	}
	JOINT LeftUpLeg
	{
		OFFSET 14.073000 -7.904099 -1.463000
		CHANNELS 3 Xrotation Yrotation Zrotation
		JOINT LeftLeg
		{
			OFFSET -0.109806 -34.073280 4.093200
			CHANNELS 3 Xrotation Yrotation Zrotation
			JOINT LeftFoot
			{
				OFFSET 0.109806 -29.899420 -6.319000
				CHANNELS 3 Xrotation Yrotation Zrotation
				JOINT LeftToeBase
				{
					OFFSET 1.551100 -14.988700 20.535801
					CHANNELS 3 Xrotation Yrotation Zrotation
					JOINT LeftToe_End
					{
						OFFSET 0.221200 0.570800 13.248301
						CHANNELS 3 Xrotation Yrotation Zrotation
						End Site
						{
							OFFSET 0.000000 13.262435 0.000000
						}
					}
				}
			}
		}
	}
	JOINT RightUpLeg
	{
		OFFSET -13.839300 -7.904099 -1.463000
		CHANNELS 3 Xrotation Yrotation Zrotation
		JOINT RightLeg
		{
			OFFSET 0.109694 -34.073219 4.093300
			CHANNELS 3 Xrotation Yrotation Zrotation
			JOINT RightFoot
			{
				OFFSET -0.109694 -29.899384 -6.319200
				CHANNELS 3 Xrotation Yrotation Zrotation
				JOINT RightToeBase
				{
					OFFSET -1.551100 -14.988700 20.535801
					CHANNELS 3 Xrotation Yrotation Zrotation
					JOINT RightToe_End
					{
						OFFSET -0.221200 0.570900 13.248299
						CHANNELS 3 Xrotation Yrotation Zrotation
						End Site
						{
							OFFSET 0.000000 13.262440 0.000000
						}
					}
				}
			}
		}
	}
}
MOTION
Frames: 5
Frame Time: 0.033333
0.287546 50.455223 9.369974 2.239678 0.064855 1.753027 10.497100 0.926856 -1.502862 0.147103 1.531815 -0.544702 0.152919 1.571910 -0.487668 -3.376246 -1.770208 -2.117230 -16.516828 -9.609377 -5.427601 0.000000 -0.000001 -0.000000 0.647340 -10.681388 -8.521435 2.134020 -26.033244 -55.983058 0.000019 -61.900830 0.000009 35.062062 1.242643 42.300758 1.257979 3.662398 -30.583552 0.394622 2.115602 -21.129774 0.082088 0.978296 -9.592251 -0.000000 -0.000000 0.000001 10.415154 1.775820 19.759631 11.833515 14.939685 -29.656217 -5.537241 29.849528 5.070890 -0.000000 0.000003 -0.000001 3.587673 15.442202 -1.484883 -68.976523 4.615000 37.441967 0.000013 138.244381 -0.000020 -17.081902 7.262041 4.801153 18.597734 8.972738 0.017354 6.698915 -29.474370 11.292552 87.539960 -61.179589 51.225681 -0.000001 -0.000001 0.000002 4.243442 -1.941596 88.976786 3.650779 -4.547369 77.506705 3.109063 -4.392883 70.564979 -0.000000 -0.000000 -0.000001 -91.854324 -7.852373 14.567475 82.103532 3.471015 -1.111169 12.028695 -7.394335 -7.427135 -2.524455 -0.000010 0.000297 -0.000000 0.000000 -0.000000 -93.124705 10.679139 -10.951752 82.813687 -2.108796 -1.144420 11.469476 0.281682 9.349599 -1.389491 0.000016 -0.000433 -0.000000 -0.000000 0.000000 
0.312511 50.539291 9.181087 1.976330 -0.071816 1.460983 10.509411 0.919576 -1.310524 0.175450 1.210314 -0.490230 0.179941 1.254161 -0.433835 -3.394008 -1.664343 -1.733133 -15.908731 -8.704243 -5.315403 -0.000000 0.000000 0.000000 0.729853 -11.765716 -7.957900 2.804179 -25.152836 -55.867853 0.000046 -62.173463 0.000060 34.086465 1.841828 43.501499 1.419744 3.734836 -31.021319 0.395704 2.118387 -21.158862 0.082565 0.981193 -9.621088 -0.000001 0.000003 -0.000001 10.443691 1.801652 19.780573 12.074424 14.748977 -29.819517 -5.537241 29.849528 5.070892 0.000000 -0.000000 -0.000001 3.691090 14.693132 -1.801281 -66.200215 5.964502 38.415924 -0.000000 135.236065 -0.000008 -15.094508 7.383551 4.113330 18.598153 8.972099 0.017933 6.700818 -29.476521 11.291619 87.646026 -61.187546 51.542124 -0.000000 0.000002 0.000002 4.243883 -1.941608 88.981457 3.651333 -4.547487 77.513850 3.109552 -4.393059 70.571311 0.000003 -0.000000 0.000000 -91.754220 -8.068706 14.672904 81.868423 3.616744 -1.037729 12.676896 -7.531409 -7.291308 -2.769367 -0.000019 0.000389 0.000000 0.000001 0.000000 -92.197015 10.235326 -10.886495 82.360081 -2.168686 -1.061945 10.496661 0.123182 9.257016 -0.636807 0.000006 -0.000063 0.000000 0.000000 0.000000 
0.335457 50.587975 9.002686 1.694051 -0.182050 1.098673 10.542424 0.875406 -1.173173 0.249863 0.897257 -0.475573 0.253505 0.943873 -0.419627 -3.362478 -1.575600 -1.298437 -15.644010 -7.848223 -5.041723 -0.000000 -0.000000 -0.000000 0.793963 -12.351329 -7.502388 3.295382 -24.551957 -55.775444 -0.000003 -62.567921 0.000004 33.476687 2.583168 44.308004 1.458740 3.743484 -31.059746 0.396091 2.119372 -21.169205 0.082752 0.982235 -9.631329 -0.000000 -0.000003 0.000002 10.461645 1.826340 19.803910 12.295838 14.569803 -29.969828 -5.537242 29.849535 5.070891 0.000000 0.000002 -0.000001 3.839264 13.599129 -2.447563 -63.359703 7.203059 39.285619 0.000004 129.929637 -0.000007 -12.536901 7.384538 3.929020 18.599333 8.971165 0.019026 6.702158 -29.478260 11.289667 87.751880 -61.192915 51.852344 -0.000000 -0.000002 0.000001 4.244260 -1.941597 88.986191 3.651894 -4.547616 77.521008 3.109980 -4.393204 70.576823 -0.000001 -0.000001 0.000001 -91.657191 -8.362013 14.743503 81.712026 3.737444 -0.925261 13.151262 -7.636449 -7.217983 -2.907066 -0.000021 0.000367 -0.000000 -0.000000 -0.000000 -91.479210 9.830075 -10.737197 81.980882 -2.231036 -0.958480 9.986135 -0.081621 9.103668 -0.091489 -0.000912 0.092311 0.000000 -0.000001 0.000000 
0.340287 50.582687 8.909628 1.466142 -0.179807 0.767727 10.578319 0.757804 -1.155426 0.336514 0.654946 -0.503848 0.339877 0.701852 -0.448075 -3.305256 -1.512055 -0.908916 -15.789975 -7.194584 -4.596801 -0.000001 -0.000000 -0.000000 0.828319 -12.597620 -7.246880 3.582885 -24.069646 -55.706367 -0.000015 -63.136022 -0.000016 33.417906 3.361823 44.488745 1.341134 3.672892 -30.580775 0.395835 2.118711 -21.162255 0.082634 0.981568 -9.624525 -0.000000 0.000003 -0.000003 10.468371 1.849624 19.829706 12.497060 14.403170 -30.106986 -5.537242 29.849528 5.070890 -0.000000 -0.000000 0.000000 3.939339 12.501179 -2.861392 -60.835204 8.097024 39.499244 0.000048 124.062518 -0.000057 -10.190644 6.887500 3.946681 18.598554 8.972211 0.018142 6.697223 -29.472574 11.291120 87.820592 -61.191105 52.130852 -0.000001 -0.000001 0.000001 4.243166 -1.941550 88.974846 3.650540 -4.547312 77.503878 3.108768 -4.392770 70.561031 0.000001 -0.000000 0.000000 -91.594476 -8.666287 14.696603 81.692525 3.692041 -0.800425 13.296257 -7.610624 -7.276424 -2.897482 -0.000013 0.000206 -0.000000 -0.000000 -0.000000 -91.172295 9.554025 -10.566656 81.859763 -2.400730 -0.929081 9.987390 -0.082667 8.951765 0.107042 -0.001510 0.256732 0.000000 -0.000001 0.000000 
0.381929 50.581856 8.842625 1.421446 -0.076140 0.509492 10.616595 0.644478 -1.228947 0.424963 0.553775 -0.556151 0.428657 0.598941 -0.500133 -3.398046 -1.476473 -0.699674 -16.259597 -6.914802 -4.006494 -0.000001 -0.000000 -0.000000 0.830713 -12.648170 -7.238664 3.563065 -23.729523 -55.699441 0.000037 -63.647500 0.000048 33.914427 3.879757 44.089513 1.129204 3.552532 -29.818512 0.394613 2.115558 -21.129221 0.082078 0.978254 -9.591813 0.000000 -0.000000 -0.000002 10.463806 1.871144 19.857928 12.677254 14.250127 -30.230817 -5.537243 29.849532 5.070889 -0.000000 -0.000000 0.000000 3.963522 11.603924 -2.648041 -58.767788 8.329217 38.885643 0.000035 119.794647 -0.000038 -8.968083 6.035386 3.672617 18.594427 8.975904 0.014060 6.689588 -29.463237 11.298241 87.855883 -61.191207 52.375748 -0.000002 0.000001 -0.000001 4.241217 -1.941537 88.952333 3.647832 -4.546714 77.469699 3.106619 -4.392011 70.532850 -0.000000 0.000000 0.000001 -91.545183 -8.850814 14.483382 81.640090 3.565180 -0.685574 13.016483 -7.425397 -7.396459 -2.629491 -0.000003 0.000027 -0.000000 0.000001 0.000000 -90.970176 9.503974 -10.662209 81.630610 -2.393606 -0.893315 10.258825 -0.041517 9.370970 -0.239939 -0.000307 0.026685 -0.000000 0.000000 -0.000000 
